<?xml version="1.0" standalone="no"?>
<!DOCTYPE svg PUBLIC "-//W3C//DTD SVG 20010904//EN"
 "http://www.w3.org/TR/2001/REC-SVG-20010904/DTD/svg10.dtd">
<svg version="1.0" xmlns="http://www.w3.org/2000/svg"
 width="1080.000000pt" height="1080.000000pt" viewBox="0 0 1080.000000 1080.000000"
 preserveAspectRatio="xMidYMid meet">
<metadata>
Created by potrace 1.14, written by Peter Selinger 2001-2017
</metadata>
<g transform="translate(0.000000,1080.000000) scale(0.100000,-0.100000)"
fill="#000000" stroke="none">
<path d="M6553 10777 c-3 -5 -14 -7 -24 -4 -11 3 -19 2 -19 -2 0 -7 -7 -9 -50
-13 -11 -1 -20 -5 -20 -8 0 -4 -6 -7 -12 -8 -23 -2 -43 -7 -55 -15 -7 -5 -17
-6 -22 -3 -5 4 -11 2 -13 -3 -1 -4 -23 -18 -48 -29 -163 -76 -338 -226 -410
-351 -8 -14 -18 -28 -21 -31 -4 -3 -22 -35 -40 -72 l-34 -68 -43 39 c-23 21
-42 36 -42 32 0 -3 -5 2 -11 12 -5 9 -15 17 -20 17 -6 0 -29 13 -52 28 -23 16
-61 37 -84 47 -24 11 -43 22 -43 27 0 4 -3 7 -7 6 -7 -2 -89 23 -133 39 -17 7
-36 12 -65 18 -11 2 -32 6 -47 9 -15 4 -54 7 -88 9 -33 1 -60 6 -60 10 0 5 -4
6 -9 3 -5 -3 -42 -8 -82 -11 -41 -3 -85 -7 -99 -10 -14 -3 -38 -7 -55 -10 -45
-7 -65 -12 -115 -30 -87 -30 -155 -60 -168 -73 -8 -7 -17 -10 -22 -7 -5 3 -12
1 -15 -5 -4 -6 -25 -22 -48 -37 -22 -14 -47 -30 -55 -37 -24 -18 -145 -139
-172 -171 -87 -103 -181 -294 -205 -416 -43 -215 -22 -462 56 -652 42 -102 93
-189 152 -259 28 -34 387 -398 798 -809 l748 -748 -435 -433 c-239 -238 -736
-733 -1104 -1099 l-669 -665 -225 225 c-193 194 -618 623 -1063 1073 -174 176
-229 227 -308 284 -78 57 -179 114 -201 114 -8 0 -14 5 -14 12 0 6 -3 9 -6 5
-3 -3 -18 -1 -33 5 -40 16 -122 39 -166 46 -49 9 -327 7 -375 -2 -54 -10 -75
-14 -77 -16 -2 -2 -11 -3 -20 -4 -10 -1 -24 -5 -30 -9 -7 -5 -17 -5 -23 -2 -5
3 -10 1 -10 -4 0 -6 -3 -10 -8 -9 -4 1 -20 -4 -37 -11 -16 -7 -35 -14 -41 -15
-7 -1 -19 -8 -28 -15 -9 -7 -16 -10 -16 -5 0 5 -4 5 -8 -1 -4 -5 -23 -18 -42
-29 -157 -84 -300 -226 -388 -381 -63 -113 -106 -241 -128 -385 -10 -68 -7
-238 6 -308 6 -34 13 -73 16 -87 9 -49 64 -188 100 -253 32 -60 107 -165 142
-201 13 -13 7 -18 -41 -42 -145 -70 -281 -187 -380 -325 -79 -111 -142 -266
-171 -419 -16 -90 -16 -312 2 -385 6 -25 13 -56 15 -70 8 -45 48 -154 77 -212
68 -138 119 -196 552 -630 l429 -430 -65 -66 c-36 -37 -73 -77 -83 -89 -10
-12 -25 -30 -33 -40 -123 -149 -211 -393 -212 -593 -1 -115 24 -294 43 -306 5
-3 9 -14 9 -25 0 -44 97 -225 165 -309 71 -87 220 -209 325 -264 85 -45 208
-90 275 -101 11 -2 20 -4 20 -5 0 -1 14 -3 32 -4 18 -1 35 -5 39 -8 4 -4 15
-3 25 3 11 5 19 6 19 1 0 -20 213 0 320 29 64 17 254 101 270 118 3 4 23 18
45 33 22 15 82 68 132 118 l93 90 440 -440 c243 -242 447 -440 455 -440 7 0
15 -4 17 -8 9 -23 211 -136 260 -146 7 -2 20 -6 28 -9 8 -4 26 -9 40 -11 14
-3 25 -5 25 -7 0 -1 9 -3 20 -5 94 -18 150 -21 280 -18 168 5 185 6 185 14 0
3 10 7 23 8 32 3 48 7 80 20 16 7 35 12 43 12 8 0 14 4 14 8 0 5 6 9 13 9 17
1 41 7 47 13 3 3 30 18 60 34 179 94 321 238 415 417 l41 80 25 -22 c13 -12
40 -33 59 -48 19 -14 37 -28 40 -31 10 -10 190 -107 205 -110 6 -1 21 -7 35
-12 14 -6 30 -11 35 -12 6 -2 30 -8 55 -15 165 -47 364 -46 555 2 44 12 150
52 153 60 2 4 12 7 22 7 10 0 21 4 24 9 3 5 26 18 51 30 25 12 45 26 45 31 0
6 5 10 10 10 20 0 76 45 158 129 45 46 82 87 82 91 0 4 9 18 20 30 28 32 92
152 118 220 18 47 39 121 59 205 2 11 6 74 8 140 4 141 -11 261 -50 385 -26
84 -117 257 -157 300 -10 11 -18 22 -18 26 0 4 -339 346 -752 761 -414 415
-754 755 -755 757 -2 1 2162 2169 2202 2205 4 3 246 -239 1209 -1210 167 -168
333 -326 368 -351 125 -89 276 -157 388 -173 14 -2 36 -6 50 -9 21 -5 144 -18
175 -19 23 0 190 15 195 18 3 2 23 6 45 10 45 7 53 9 75 18 8 3 45 16 83 29
37 12 67 26 67 30 0 5 9 8 20 8 11 0 20 5 20 11 0 5 3 8 8 5 6 -4 132 77 176
114 57 48 144 145 190 215 173 256 220 581 130 895 -33 115 -127 285 -203 368
-17 18 -31 36 -31 40 0 4 26 20 58 36 254 131 449 374 523 653 27 100 36 328
19 445 -24 167 -101 345 -205 475 -35 43 -246 259 -469 481 -223 222 -406 407
-406 412 0 5 26 35 58 67 148 151 228 279 286 460 51 162 55 363 10 528 -9 33
-17 65 -18 70 -15 58 -87 195 -137 262 -56 75 -191 213 -209 213 -6 0 -9 4 -6
8 2 4 -8 13 -23 20 -15 7 -36 20 -47 30 -10 10 -50 33 -89 52 -38 19 -71 38
-73 42 -2 4 -10 4 -18 1 -8 -3 -14 -1 -14 4 0 5 -6 10 -12 10 -7 1 -40 8 -73
17 -160 41 -333 42 -505 0 -75 -18 -209 -72 -228 -91 -7 -7 -18 -13 -23 -13
-19 0 -126 -86 -215 -172 l-91 -89 -424 424 c-233 233 -442 436 -464 453 -22
16 -42 31 -45 34 -13 14 -108 70 -118 70 -7 0 -12 5 -12 10 0 6 -4 10 -9 10
-5 0 -31 10 -58 22 -26 11 -52 22 -58 22 -5 1 -30 8 -55 15 -25 7 -46 13 -47
12 -2 0 -22 6 -47 13 -50 15 -384 18 -393 3z m261 -664 c21 -2 67 -17 101 -35
57 -28 220 -188 1608 -1577 1012 -1013 1552 -1560 1565 -1586 129 -259 -46
-553 -328 -548 -36 0 -78 4 -94 7 -95 22 -89 17 -1676 1605 -1016 1016 -1553
1560 -1567 1588 -94 180 -38 394 129 499 21 13 38 21 38 18 0 -4 6 -2 13 3 13
11 43 19 103 29 21 3 41 8 43 10 2 2 9 0 15 -3 6 -4 28 -9 50 -10z m-1630
-348 c26 -9 62 -25 79 -36 17 -10 1029 -1016 2249 -2235 1810 -1810 2221
-2226 2242 -2268 83 -170 38 -364 -109 -471 -29 -21 -56 -38 -59 -37 -3 0 -28
-8 -56 -18 -57 -21 -171 -21 -209 -1 -11 7 -21 9 -21 6 0 -3 -23 7 -51 22 -40
22 -570 546 -2253 2228 -1210 1210 -2200 2203 -2198 2208 1 4 -2 7 -7 7 -16 0
-52 57 -72 115 -35 101 -27 213 23 310 20 37 83 105 123 132 35 24 121 54 129
45 3 -3 6 -1 6 4 0 15 130 7 184 -11z m3880 -366 c-5 -8 -1 -8 13 0 11 6 23 7
27 4 3 -4 21 -8 39 -10 100 -11 190 -67 232 -145 84 -154 58 -301 -77 -442
l-63 -66 -230 230 c-127 126 -229 235 -227 242 5 20 126 131 163 150 19 9 54
23 79 31 25 8 46 15 48 16 2 0 0 -4 -4 -10z m-2553 -2907 c126 -126 229 -232
229 -237 0 -10 -2199 -2209 -2205 -2204 -2 2 -108 107 -234 233 l-230 229
1102 1104 c606 606 1104 1103 1106 1103 1 0 106 -103 232 -228z m-5041 -405
c30 -6 65 -20 70 -27 3 -5 14 -10 25 -12 10 -1 27 -10 36 -18 68 -61 1509
-1507 1509 -1514 0 -5 2 -7 5 -5 2 3 478 -469 1057 -1049 579 -579 1058 -1059
1065 -1065 450 -448 771 -770 794 -799 56 -70 73 -123 74 -228 0 -87 -3 -101
-32 -160 -56 -112 -129 -173 -248 -205 -41 -11 -135 -14 -135 -4 0 5 -6 6 -14
3 -17 -6 -123 36 -156 62 -13 10 -1017 1012 -2231 2226 -1317 1317 -2218 2224
-2232 2250 -74 128 -57 310 39 425 39 48 122 100 185 116 47 12 140 14 189 4z
m-335 -1681 c36 -8 77 -26 106 -47 16 -11 29 -18 29 -15 0 6 3054 -3049 3084
-3085 82 -98 97 -277 34 -402 -31 -62 -142 -163 -185 -168 -5 -1 -19 -6 -33
-12 -14 -6 -65 -11 -115 -11 -172 -1 -15 -143 -1759 1599 -845 845 -1547 1553
-1561 1573 -60 91 -77 230 -41 332 17 45 83 150 95 150 3 0 18 11 33 24 14 14
29 22 32 19 3 -4 6 -1 6 6 0 7 5 9 10 6 6 -3 10 -1 10 4 0 6 3 10 8 9 4 0 14
2 22 6 46 20 161 27 225 12z m848 -2915 c-111 -107 -205 -140 -331 -117 -41 8
-112 38 -112 48 0 5 -6 8 -13 8 -21 0 -87 70 -112 121 -49 96 -41 234 20 330
17 28 56 75 85 105 l54 55 240 -241 241 -240 -72 -69z"/>
</g>
</svg>
